<svg width="500" height="418" viewBox="0 0 500 418" fill="none" xmlns="http://www.w3.org/2000/svg">
<path d="M1.50017 416.5C7.82395 415.688 1.99712 352.453 3.45767 340.459C4.37404 332.933 15.0658 322.62 20.0449 317.509C32.1097 305.124 45.4124 296.776 60.9465 289.8C67.928 286.665 75.7349 283.652 83.0971 281.762C91.1607 279.693 100.385 280.944 108.03 277.955C114.22 275.534 124.77 277.532 131.314 277.532C140.313 277.532 150.193 277.02 158.1 282.185C169.453 289.601 185.581 290.513 198.075 296.569C213.814 304.198 229.775 307.991 247.115 307.991C269.261 307.991 283.804 284.379 297.804 269.494C312.129 254.264 321.507 233.934 333.245 216.72C338.527 208.975 341.381 198.623 346.433 190.386C350.198 184.248 354.621 176.189 357.148 169.446C364.165 150.717 374.088 129.583 385.274 113.076C396.186 96.9731 405.622 77.8046 419.17 63.898C435.078 47.5679 454.196 41.5955 474.392 32.3817C488.547 25.9239 498.5 19.984 498.5 1.5" stroke="#FFD700" stroke-width="3" stroke-linecap="round"/>
</svg>
