<svg width="30" height="30" viewBox="0 0 30 30" fill="none" xmlns="http://www.w3.org/2000/svg">
<path d="M3.49998 6.50005L8.74998 10L13.9825 2.67505C14.0981 2.51301 14.2507 2.38092 14.4277 2.2898C14.6047 2.19867 14.8009 2.15112 15 2.15112C15.1991 2.15112 15.3952 2.19867 15.5722 2.2898C15.7492 2.38092 15.9019 2.51301 16.0175 2.67505L21.25 10L26.5 6.50005C26.6987 6.36785 26.9311 6.2953 27.1696 6.29096C27.4082 6.28662 27.6431 6.35069 27.8465 6.47557C28.0499 6.60045 28.2132 6.78095 28.3172 6.99571C28.4214 7.21047 28.4617 7.45055 28.4337 7.68755L26.38 25.1463C26.3441 25.4504 26.198 25.7307 25.9692 25.9342C25.7404 26.1375 25.4449 26.25 25.1387 26.25H4.86123C4.55507 26.25 4.25955 26.1375 4.03077 25.9342C3.80197 25.7307 3.6558 25.4504 3.61998 25.1463L1.56623 7.6863C1.53848 7.4494 1.57909 7.20951 1.68325 6.99494C1.78743 6.78037 1.9508 6.60009 2.15412 6.47537C2.35743 6.35065 2.59218 6.2867 2.83065 6.29107C3.06913 6.29545 3.30138 6.36796 3.49998 6.50005ZM15 18.75C15.663 18.75 16.2989 18.4867 16.7677 18.0178C17.2366 17.5489 17.5 16.913 17.5 16.25C17.5 15.587 17.2366 14.9512 16.7677 14.4823C16.2989 14.0134 15.663 13.75 15 13.75C14.337 13.75 13.7011 14.0134 13.2322 14.4823C12.7634 14.9512 12.5 15.587 12.5 16.25C12.5 16.913 12.7634 17.5489 13.2322 18.0178C13.7011 18.4867 14.337 18.75 15 18.75Z" fill="#FFD700"/>
</svg>
