<?xml version="1.0" encoding="UTF-8"?><svg id="Layer_2" xmlns="http://www.w3.org/2000/svg" viewBox="0 0 240.16 243.09"><defs><style>.cls-1{fill:gold;}</style></defs><g id="Layer_1-2"><g><path class="cls-1" d="M240.11,87.33c-.04-.74-.16-1.69-.63-2.18-5.22-5.38-10.55-10.69-15.82-16-.26,.16-.5,.31-.74,.48,0,8.23,.06,16.45-.07,24.68,0,1.31-.44,2.99-1.32,3.88-7.33,7.46-14.7,14.87-22.06,22.29-5.15,5.19-10.3,10.39-15.43,15.61-1.28,1.31-2.41,3.26-2.63,5.04-2.09,15.98-4,31.99-5.88,48-.23,1.94-.73,3.23-2.58,4.28-13.72,7.8-27.35,15.73-41.03,23.61-.91,.53-1.86,1.01-3.14,1.69,0-10.23-.01-20.09,0-29.86,.01-2.55,.01-5.08,.03-7.61,0-.8,.31-1.98,.88-2.32,6.53-3.9,13.14-7.67,20.26-11.81-.84,7.34-1.58,13.95-2.41,21.15,5.32-3.05,9.89-5.95,14.71-8.33,.19-.09,.36-.19,.53-.27,2.76-1.55,3.63-3.71,3.97-6.83,2.05-18.59,4.34-37.16,6.48-55.74,.27-2.38,1.29-3.81,3.37-4.98,7.66-4.33,15.24-8.77,22.85-13.14,1.28-.74,2.55-1.47,3.83-2.19,1.69-.97,2.69-1.92,2.66-4.13-.1-17.03-.04-34.07-.09-51.09,0-.95-.09-2.21-.65-2.82-5.17-5.45-10.46-10.79-15.71-16.14-.27,.13-.56,.27-.83,.41v3.93c0,7.5-.01,15-.01,22.5,0,10.87,0,21.76,.04,32.65,.01,2.29-.63,3.64-2.7,4.8-7.78,4.35-15.5,8.84-23.21,13.32-1.25,.74-2.5,1.47-3.76,2.19-11.58,6.72-23.2,13.41-34.69,20.28-3.07,1.85-5.56,1.91-8.6-.09-4.58-3.03-9.41-5.69-14.17-8.44-8.07-4.68-16.14-9.35-24.21-14.02-7.73-4.45-15.47-8.91-23.21-13.33-1.95-1.11-2.59-2.31-2.59-4.51,.06-10.94,.06-21.9,.06-32.84V21.94c-5.51,5.56-10.36,10.26-14.91,15.21-1.22,1.31-2.21,3.43-2.22,5.19-.16,16.69-.04,33.39-.13,50.08-.01,2.06,.61,3.24,2.43,4.27,1.31,.74,2.6,1.48,3.91,2.23,7.2,4.14,14.33,8.41,21.62,12.37,3.37,1.82,4.65,4.14,5.05,7.88,2.02,18.71,4.31,37.4,6.56,56.1,.11,.92,.37,2.25,1.02,2.63,.8,.48,1.59,.97,2.41,1.45,4.94,2.95,10,5.83,15.4,8.95-.85-7.33-1.62-13.96-2.48-21.19,6.63,3.83,12.62,7.4,18.73,10.74,1.99,1.1,2.55,2.39,2.53,4.55-.01,2.15-.03,4.3-.04,6.45-.03,9.02,.01,18.03-.01,27.05,0,.83-.17,1.64-.3,2.75-13.68-7.88-27.01-15.68-40.43-23.27-.7-.4-1.38-.8-2.08-1.18-2.66-1.49-3.8-3.24-4.13-6.23-.14-1.25-.28-2.52-.43-3.77-1.62-14.43-3.39-28.83-5.18-43.23-.17-1.34-.7-2.92-1.61-3.84-5.54-5.61-11.09-11.2-16.64-16.78-7.14-7.19-14.27-14.37-21.36-21.6-1.15-1.2-1.91-3.29-1.96-4.98-.2-7.33-.07-14.66-.1-21.99,0-.8-.19-1.61-.4-3.17-4.63,4.74-8.57,9.09-12.85,13.08-2.83,2.63-4.4,5.34-3.96,9.35,.38,3.34-.14,6.79,.17,10.15,.17,1.71,.91,3.73,2.08,4.92,12.24,12.44,24.58,24.78,37,37.01,.53,.53,.98,1.05,1.38,1.59,.4,.56,.74,1.11,1.01,1.71,.6,1.21,.94,2.52,1.11,4.03,1.89,16.35,3.97,32.67,5.85,49.03,.27,2.39,1.17,3.73,3.26,4.92,12.25,7.02,24.49,14.06,36.7,21.13,9.53,5.51,19.07,11.03,28.58,16.58,2.12,1.24,3.63,1.31,5.78,.06,9.53-5.56,19.08-11.1,28.65-16.64,12-6.94,24.02-13.85,36.06-20.72,2.66-1.51,3.74-3.29,4.08-6.28,1.89-16.79,3.98-33.58,6.06-50.36,.13-1.04,.54-2.26,1.25-2.97,.13-.13,.26-.26,.37-.38,10.13-10.33,20.09-20.86,30.64-30.77,9.73-9.14,10.02-8.84,10.03-21.99,0-1.58,.07-3.17-.03-4.74Zm-150.14,59.6c-1.2-.73-2.29-2.42-2.5-3.81-.94-5.86-1.52-11.8-2.35-18.63,5.41,3.14,10.1,5.89,14.81,8.62,5.93,3.43,11.91,6.79,17.79,10.32,1.76,1.05,3.07,1.05,4.88-.01,10.16-5.99,20.41-11.84,30.62-17.72,.46-.27,.97-.48,1.92-.94-.84,6.86-1.55,13.31-2.49,19.72-.13,.87-1.21,1.82-2.08,2.33-9.42,5.52-18.87,11.01-28.4,16.34-1.07,.6-3.05,.58-4.13-.01-9.44-5.27-18.8-10.66-28.08-16.21Z"/><path class="cls-1" d="M171.48,49.47c.01,7.77,.09,15.55,.13,23.34,0,2.22-.7,3.42-2.62,4.5-5.12,2.93-10.25,5.86-15.36,8.82-10.5,6.05-21,12.12-31.55,18.1-1,.57-2.86,.6-3.84,.04-10.56-6.01-21.08-12.04-31.58-18.14-5.29-3.06-10.57-6.15-15.84-9.24-1.07-.63-2.09-2.39-2.09-3.63-.06-7.93-.09-15.87-.09-23.79-.01-9.99,0-19.98,.03-29.97,0-1.05,.19-2.41,.84-3.09,5.11-5.38,10.35-10.63,15.54-15.92,.28,.11,.57,.24,.85,.36v3.54c0,15.03,.03,30.06,0,45.08-.01,4.26-.03,8.5-.06,12.75,0,2.46,.78,3.83,2.92,5.02,9.63,5.41,19.2,10.93,28.69,16.56,2.04,1.21,3.51,1.07,5.46-.07,9.61-5.68,19.25-11.27,28.97-16.74,1.96-1.11,2.58-2.33,2.56-4.53-.01-4.34-.03-8.68-.03-13.01-.04-14.94-.03-29.88-.03-44.83V0c4.43,4.41,7.95,8.45,12.03,11.87,4.07,3.42,5.35,7.3,5.24,12.58-.17,8.34-.21,16.68-.18,25.02Z"/></g></g></svg>