<?xml version="1.0" encoding="UTF-8"?><svg id="Layer_2" xmlns="http://www.w3.org/2000/svg" viewBox="0 0 580.38 175.06"><defs><style>.cls-1{fill:#fff;}.cls-2{fill:gold;}</style></defs><g id="Layer_1-2"><g><g><path class="cls-1" d="M239.16,46.25h74.44v82.56h-74.44V46.25Zm57.25,65.37V63.44h-40.06v48.17h40.06Z"/><path class="cls-1" d="M384.46,46.25h19.4v82.56h-17.19v-50.2l-26.62,50.2-26.68-50.2v50.2h-17.19V46.25h19.4l24.48,48.12,24.42-48.12Z"/><path class="cls-1" d="M480.81,63.44h-74.44v-17.19h74.44v17.19Zm-74.44,32.65v-17.19h74.44v17.19h-57.19v15.52h57.19v17.19h-74.38v-32.71h-.06Z"/><path class="cls-1" d="M531.91,46.25l48.47,82.56h-68.47l7.76-13.79h35.28l-23.16-38.32-29.43,52.11h-18.98l48.53-82.56Z"/></g><g><path class="cls-2" d="M172.91,62.89c-.03-.53-.11-1.22-.45-1.57-3.76-3.87-7.59-7.7-11.4-11.52-.18,.11-.36,.23-.53,.35,0,5.92,.04,11.85-.05,17.77,0,.94-.32,2.15-.95,2.8-5.28,5.37-10.59,10.71-15.88,16.05-3.71,3.74-7.42,7.48-11.11,11.24-.92,.94-1.73,2.35-1.9,3.63-1.51,11.51-2.88,23.04-4.23,34.57-.16,1.39-.52,2.33-1.85,3.08-9.88,5.62-19.7,11.32-29.55,17-.66,.38-1.34,.73-2.26,1.22,0-7.37-.01-14.47,0-21.5,.01-1.83,.01-3.66,.02-5.48,0-.57,.23-1.42,.64-1.67,4.7-2.81,9.46-5.52,14.59-8.51-.6,5.29-1.14,10.04-1.73,15.23,3.83-2.19,7.12-4.28,10.6-6,.13-.06,.26-.13,.38-.19,1.99-1.12,2.61-2.67,2.86-4.92,1.48-13.38,3.13-26.76,4.66-40.14,.19-1.71,.93-2.75,2.43-3.59,5.51-3.12,10.98-6.31,16.46-9.46,.92-.53,1.83-1.06,2.76-1.58,1.22-.7,1.94-1.38,1.92-2.97-.07-12.27-.03-24.53-.06-36.79,0-.69-.06-1.59-.47-2.03-3.72-3.93-7.53-7.77-11.31-11.62-.19,.09-.4,.19-.59,.3v2.83c0,5.4-.01,10.8-.01,16.2,0,7.83,0,15.67,.03,23.51,.01,1.65-.45,2.62-1.95,3.45-5.61,3.14-11.16,6.36-16.72,9.59-.9,.53-1.8,1.06-2.71,1.58-8.34,4.84-16.7,9.65-24.99,14.6-2.21,1.33-4.01,1.37-6.19-.06-3.3-2.18-6.77-4.1-10.21-6.08-5.81-3.37-11.62-6.73-17.43-10.09-5.56-3.21-11.14-6.42-16.72-9.6-1.4-.8-1.87-1.66-1.87-3.25,.04-7.88,.04-15.77,.04-23.65V15.8c-3.97,4.01-7.46,7.39-10.74,10.96-.88,.94-1.59,2.47-1.6,3.74-.11,12.02-.03,24.04-.09,36.06-.01,1.49,.44,2.34,1.75,3.07,.94,.53,1.88,1.07,2.82,1.61,5.19,2.98,10.32,6.06,15.57,8.91,2.43,1.31,3.35,2.98,3.64,5.68,1.46,13.48,3.11,26.93,4.72,40.4,.08,.67,.27,1.62,.74,1.9,.57,.35,1.15,.7,1.73,1.05,3.56,2.12,7.2,4.2,11.09,6.45-.61-5.28-1.17-10.05-1.78-15.26,4.78,2.76,9.09,5.33,13.49,7.74,1.43,.79,1.83,1.72,1.82,3.28-.01,1.55-.02,3.1-.03,4.64-.02,6.5,.01,12.98-.01,19.48,0,.59-.12,1.18-.22,1.98-9.85-5.68-19.45-11.29-29.12-16.76-.5-.29-.99-.57-1.5-.85-1.92-1.08-2.74-2.34-2.97-4.49-.1-.9-.2-1.81-.31-2.72-1.17-10.39-2.44-20.76-3.73-31.13-.12-.96-.5-2.1-1.16-2.77-3.99-4.04-7.98-8.07-11.98-12.08-5.14-5.18-10.28-10.35-15.38-15.56-.83-.86-1.37-2.37-1.41-3.59-.14-5.28-.05-10.56-.07-15.83,0-.57-.13-1.16-.29-2.29-3.33,3.41-6.17,6.55-9.25,9.42-2.04,1.9-3.17,3.84-2.85,6.73,.28,2.41-.1,4.89,.12,7.31,.12,1.23,.66,2.69,1.5,3.55,8.81,8.96,17.7,17.84,26.65,26.66,.38,.38,.71,.76,.99,1.15,.29,.4,.53,.8,.73,1.23,.43,.87,.68,1.81,.8,2.9,1.36,11.78,2.86,23.53,4.21,35.31,.19,1.72,.84,2.69,2.35,3.55,8.82,5.05,17.64,10.13,26.43,15.22,6.87,3.97,13.73,7.94,20.58,11.94,1.53,.89,2.61,.94,4.16,.04,6.87-4.01,13.74-7.99,20.63-11.98,8.64-5,17.3-9.97,25.97-14.92,1.92-1.09,2.7-2.37,2.94-4.52,1.36-12.09,2.87-24.19,4.37-36.27,.09-.75,.39-1.63,.9-2.14,.09-.09,.18-.18,.27-.28,7.3-7.44,14.47-15.02,22.06-22.16,7.01-6.58,7.21-6.36,7.23-15.83,0-1.14,.05-2.29-.02-3.41Zm-108.12,42.92c-.86-.52-1.65-1.74-1.8-2.75-.68-4.22-1.1-8.5-1.69-13.42,3.89,2.26,7.28,4.24,10.67,6.21,4.27,2.47,8.58,4.89,12.81,7.43,1.27,.76,2.21,.76,3.52-.01,7.32-4.31,14.7-8.53,22.05-12.76,.33-.19,.7-.35,1.38-.68-.6,4.94-1.12,9.58-1.79,14.2-.09,.63-.87,1.31-1.5,1.68-6.78,3.98-13.59,7.93-20.46,11.77-.77,.43-2.19,.42-2.97-.01-6.79-3.79-13.54-7.68-20.22-11.67Z"/><path class="cls-2" d="M123.49,35.62c.01,5.6,.06,11.2,.09,16.81,0,1.6-.5,2.46-1.89,3.24-3.69,2.11-7.38,4.22-11.06,6.35-7.56,4.36-15.13,8.73-22.72,13.04-.72,.41-2.06,.43-2.77,.03-7.6-4.32-15.18-8.67-22.74-13.07-3.81-2.2-7.61-4.43-11.41-6.65-.77-.45-1.51-1.72-1.51-2.61-.04-5.71-.06-11.43-.06-17.14-.01-7.19,0-14.39,.02-21.58,0-.76,.13-1.73,.6-2.22,3.68-3.87,7.45-7.66,11.19-11.47,.2,.08,.41,.17,.61,.26V3.16c0,10.82,.02,21.64,0,32.47-.01,3.06-.02,6.12-.04,9.18,0,1.77,.56,2.76,2.1,3.62,6.94,3.89,13.83,7.87,20.66,11.93,1.47,.87,2.53,.77,3.94-.05,6.92-4.09,13.87-8.12,20.87-12.05,1.41-.8,1.85-1.68,1.84-3.26-.01-3.13-.02-6.25-.02-9.37-.03-10.76-.02-21.52-.02-32.28V0c3.19,3.18,5.73,6.09,8.66,8.55,2.93,2.46,3.85,5.26,3.77,9.06-.12,6.01-.15,12.01-.13,18.02Z"/></g></g></g></svg>